<?xml version="1.0" encoding="utf-8" standalone="no"?>
<!DOCTYPE svg PUBLIC "-//W3C//DTD SVG 1.1//EN"
  "http://www.w3.org/Graphics/SVG/1.1/DTD/svg11.dtd">
<svg xmlns:xlink="http://www.w3.org/1999/xlink" width="421.080404pt" height="126.324121pt" viewBox="0 0 421.080404 126.324121" xmlns="http://www.w3.org/2000/svg" version="1.1">
 <metadata>
  <rdf:RDF xmlns:dc="http://purl.org/dc/elements/1.1/" xmlns:cc="http://creativecommons.org/ns#" xmlns:rdf="http://www.w3.org/1999/02/22-rdf-syntax-ns#">
   <cc:Work>
    <dc:type rdf:resource="http://purl.org/dc/dcmitype/StillImage"/>
    <dc:date>2023-02-23T15:41:28.367714</dc:date>
    <dc:format>image/svg+xml</dc:format>
    <dc:creator>
     <cc:Agent>
      <dc:title>Matplotlib v3.6.3, https://matplotlib.org/</dc:title>
     </cc:Agent>
    </dc:creator>
   </cc:Work>
  </rdf:RDF>
 </metadata>
 <defs>
  <style type="text/css">*{stroke-linejoin: round; stroke-linecap: butt}</style>
 </defs>
 <g id="figure_1">
  <g id="patch_1">
   <path d="M 0 126.324121 
L 421.080404 126.324121 
L 421.080404 0 
L 0 0 
z
" style="fill: #ffffff"/>
  </g>
  <g id="axes_1">
   <g id="patch_2">
    <path d="M 33.192959 97.005564 
L 415.589496 97.005564 
L 415.589496 3.00024 
L 33.192959 3.00024 
z
" style="fill: #ffffff"/>
   </g>
   <g id="matplotlib.axis_1">
    <g id="xtick_1">
     <g id="line2d_1">
      <defs>
       <path id="m95ea4dccb4" d="M 0 0 
L 0 -2.5 
" style="stroke: #23373b; stroke-width: 0.8"/>
      </defs>
      <g>
       <use xlink:href="#m95ea4dccb4" x="33.192959" y="97.005564" style="fill: #23373b; stroke: #23373b; stroke-width: 0.8"/>
      </g>
     </g>
     <g id="line2d_2">
      <defs>
       <path id="m37ec5ff99c" d="M 0 0 
L 0 2.5 
" style="stroke: #23373b; stroke-width: 0.8"/>
      </defs>
      <g>
       <use xlink:href="#m37ec5ff99c" x="33.192959" y="3.00024" style="fill: #23373b; stroke: #23373b; stroke-width: 0.8"/>
      </g>
     </g>
     <g id="text_1">
      <!-- $\mathdefault{0}$ -->
      <g style="fill: #23373b" transform="translate(30.702291 107.424063) scale(0.1 -0.1)">
       <defs>
        <path id="CMR17-30" d="M 2688 2025 
C 2688 2416 2682 3080 2413 3591 
C 2176 4039 1798 4198 1466 4198 
C 1158 4198 768 4058 525 3597 
C 269 3118 243 2524 243 2025 
C 243 1661 250 1106 448 619 
C 723 -39 1216 -128 1466 -128 
C 1760 -128 2208 -7 2470 600 
C 2662 1042 2688 1559 2688 2025 
z
M 1466 -26 
C 1056 -26 813 325 723 812 
C 653 1188 653 1738 653 2096 
C 653 2588 653 2997 736 3387 
C 858 3929 1216 4096 1466 4096 
C 1728 4096 2067 3923 2189 3400 
C 2272 3036 2278 2607 2278 2096 
C 2278 1680 2278 1169 2202 792 
C 2067 95 1690 -26 1466 -26 
z
" transform="scale(0.015625)"/>
       </defs>
       <use xlink:href="#CMR17-30" transform="scale(0.996264)"/>
      </g>
     </g>
    </g>
    <g id="xtick_2">
     <g id="line2d_3">
      <g>
       <use xlink:href="#m95ea4dccb4" x="96.925715" y="97.005564" style="fill: #23373b; stroke: #23373b; stroke-width: 0.8"/>
      </g>
     </g>
     <g id="line2d_4">
      <g>
       <use xlink:href="#m37ec5ff99c" x="96.925715" y="3.00024" style="fill: #23373b; stroke: #23373b; stroke-width: 0.8"/>
      </g>
     </g>
     <g id="text_2">
      <!-- $\mathdefault{1}$ -->
      <g style="fill: #23373b" transform="translate(94.435048 107.424063) scale(0.1 -0.1)">
       <defs>
        <path id="CMR17-31" d="M 1702 4058 
C 1702 4192 1696 4192 1606 4192 
C 1357 3916 979 3827 621 3827 
C 602 3827 570 3827 563 3808 
C 557 3795 557 3782 557 3648 
C 755 3648 1088 3686 1344 3839 
L 1344 461 
C 1344 236 1331 160 781 160 
L 589 160 
L 589 0 
C 896 0 1216 0 1523 0 
C 1830 0 2150 0 2458 0 
L 2458 160 
L 2266 160 
C 1715 160 1702 230 1702 458 
L 1702 4058 
z
" transform="scale(0.015625)"/>
       </defs>
       <use xlink:href="#CMR17-31" transform="scale(0.996264)"/>
      </g>
     </g>
    </g>
    <g id="xtick_3">
     <g id="line2d_5">
      <g>
       <use xlink:href="#m95ea4dccb4" x="160.658471" y="97.005564" style="fill: #23373b; stroke: #23373b; stroke-width: 0.8"/>
      </g>
     </g>
     <g id="line2d_6">
      <g>
       <use xlink:href="#m37ec5ff99c" x="160.658471" y="3.00024" style="fill: #23373b; stroke: #23373b; stroke-width: 0.8"/>
      </g>
     </g>
     <g id="text_3">
      <!-- $\mathdefault{2}$ -->
      <g style="fill: #23373b" transform="translate(158.167804 107.424063) scale(0.1 -0.1)">
       <defs>
        <path id="CMR17-32" d="M 2669 989 
L 2554 989 
C 2490 536 2438 459 2413 420 
C 2381 369 1920 369 1830 369 
L 602 369 
C 832 619 1280 1072 1824 1597 
C 2214 1967 2669 2402 2669 3035 
C 2669 3790 2067 4224 1395 4224 
C 691 4224 262 3604 262 3030 
C 262 2780 448 2748 525 2748 
C 589 2748 781 2787 781 3010 
C 781 3207 614 3264 525 3264 
C 486 3264 448 3258 422 3245 
C 544 3790 915 4058 1306 4058 
C 1862 4058 2227 3617 2227 3035 
C 2227 2479 1901 2000 1536 1584 
L 262 146 
L 262 0 
L 2515 0 
L 2669 989 
z
" transform="scale(0.015625)"/>
       </defs>
       <use xlink:href="#CMR17-32" transform="scale(0.996264)"/>
      </g>
     </g>
    </g>
    <g id="xtick_4">
     <g id="line2d_7">
      <g>
       <use xlink:href="#m95ea4dccb4" x="224.391228" y="97.005564" style="fill: #23373b; stroke: #23373b; stroke-width: 0.8"/>
      </g>
     </g>
     <g id="line2d_8">
      <g>
       <use xlink:href="#m37ec5ff99c" x="224.391228" y="3.00024" style="fill: #23373b; stroke: #23373b; stroke-width: 0.8"/>
      </g>
     </g>
     <g id="text_4">
      <!-- $\mathdefault{3}$ -->
      <g style="fill: #23373b" transform="translate(221.90056 107.424063) scale(0.1 -0.1)">
       <defs>
        <path id="CMR17-33" d="M 1414 2157 
C 1984 2157 2234 1662 2234 1090 
C 2234 320 1824 25 1453 25 
C 1114 25 563 194 390 693 
C 422 680 454 680 486 680 
C 640 680 755 782 755 948 
C 755 1133 614 1216 486 1216 
C 378 1216 211 1165 211 926 
C 211 335 787 -128 1466 -128 
C 2176 -128 2720 430 2720 1085 
C 2720 1707 2208 2157 1600 2227 
C 2086 2328 2554 2756 2554 3329 
C 2554 3820 2048 4179 1472 4179 
C 890 4179 378 3829 378 3329 
C 378 3110 544 3072 627 3072 
C 762 3072 877 3155 877 3321 
C 877 3486 762 3569 627 3569 
C 602 3569 570 3569 544 3557 
C 730 3959 1235 4032 1459 4032 
C 1683 4032 2106 3925 2106 3320 
C 2106 3143 2080 2828 1862 2550 
C 1670 2304 1453 2304 1242 2284 
C 1210 2284 1062 2269 1037 2269 
C 992 2263 966 2257 966 2208 
C 966 2163 973 2157 1101 2157 
L 1414 2157 
z
" transform="scale(0.015625)"/>
       </defs>
       <use xlink:href="#CMR17-33" transform="scale(0.996264)"/>
      </g>
     </g>
    </g>
    <g id="xtick_5">
     <g id="line2d_9">
      <g>
       <use xlink:href="#m95ea4dccb4" x="288.123984" y="97.005564" style="fill: #23373b; stroke: #23373b; stroke-width: 0.8"/>
      </g>
     </g>
     <g id="line2d_10">
      <g>
       <use xlink:href="#m37ec5ff99c" x="288.123984" y="3.00024" style="fill: #23373b; stroke: #23373b; stroke-width: 0.8"/>
      </g>
     </g>
     <g id="text_5">
      <!-- $\mathdefault{4}$ -->
      <g style="fill: #23373b" transform="translate(285.633316 107.424063) scale(0.1 -0.1)">
       <defs>
        <path id="CMR17-34" d="M 2150 4122 
C 2150 4256 2144 4256 2029 4256 
L 128 1254 
L 128 1088 
L 1779 1088 
L 1779 457 
C 1779 224 1766 160 1318 160 
L 1197 160 
L 1197 0 
C 1402 0 1747 0 1965 0 
C 2182 0 2528 0 2733 0 
L 2733 160 
L 2611 160 
C 2163 160 2150 224 2150 457 
L 2150 1088 
L 2803 1088 
L 2803 1254 
L 2150 1254 
L 2150 4122 
z
M 1798 3703 
L 1798 1254 
L 256 1254 
L 1798 3703 
z
" transform="scale(0.015625)"/>
       </defs>
       <use xlink:href="#CMR17-34" transform="scale(0.996264)"/>
      </g>
     </g>
    </g>
    <g id="xtick_6">
     <g id="line2d_11">
      <g>
       <use xlink:href="#m95ea4dccb4" x="351.85674" y="97.005564" style="fill: #23373b; stroke: #23373b; stroke-width: 0.8"/>
      </g>
     </g>
     <g id="line2d_12">
      <g>
       <use xlink:href="#m37ec5ff99c" x="351.85674" y="3.00024" style="fill: #23373b; stroke: #23373b; stroke-width: 0.8"/>
      </g>
     </g>
     <g id="text_6">
      <!-- $\mathdefault{5}$ -->
      <g style="fill: #23373b" transform="translate(349.366072 107.424063) scale(0.1 -0.1)">
       <defs>
        <path id="CMR17-35" d="M 730 3692 
C 794 3666 1056 3584 1325 3584 
C 1920 3584 2246 3911 2432 4100 
C 2432 4157 2432 4192 2394 4192 
C 2387 4192 2374 4192 2323 4163 
C 2099 4058 1837 3973 1517 3973 
C 1325 3973 1037 3999 723 4139 
C 653 4171 640 4171 634 4171 
C 602 4171 595 4164 595 4037 
L 595 2203 
C 595 2089 595 2057 659 2057 
C 691 2057 704 2070 736 2114 
C 941 2401 1222 2522 1542 2522 
C 1766 2522 2246 2382 2246 1289 
C 2246 1085 2246 715 2054 421 
C 1894 159 1645 25 1370 25 
C 947 25 518 320 403 814 
C 429 807 480 795 506 795 
C 589 795 749 840 749 1038 
C 749 1210 627 1280 506 1280 
C 358 1280 262 1190 262 1011 
C 262 454 704 -128 1382 -128 
C 2042 -128 2669 440 2669 1264 
C 2669 2030 2170 2624 1549 2624 
C 1222 2624 947 2503 730 2274 
L 730 3692 
z
" transform="scale(0.015625)"/>
       </defs>
       <use xlink:href="#CMR17-35" transform="scale(0.996264)"/>
      </g>
     </g>
    </g>
    <g id="xtick_7">
     <g id="line2d_13">
      <g>
       <use xlink:href="#m95ea4dccb4" x="415.589496" y="97.005564" style="fill: #23373b; stroke: #23373b; stroke-width: 0.8"/>
      </g>
     </g>
     <g id="line2d_14">
      <g>
       <use xlink:href="#m37ec5ff99c" x="415.589496" y="3.00024" style="fill: #23373b; stroke: #23373b; stroke-width: 0.8"/>
      </g>
     </g>
     <g id="text_7">
      <!-- $\mathdefault{6}$ -->
      <g style="fill: #23373b" transform="translate(413.098828 107.424063) scale(0.1 -0.1)">
       <defs>
        <path id="CMR17-36" d="M 678 2176 
C 678 3690 1395 4032 1811 4032 
C 1946 4032 2272 4009 2400 3776 
C 2298 3776 2106 3776 2106 3553 
C 2106 3381 2246 3323 2336 3323 
C 2394 3323 2566 3348 2566 3560 
C 2566 3954 2246 4179 1805 4179 
C 1043 4179 243 3390 243 1984 
C 243 253 966 -128 1478 -128 
C 2099 -128 2688 427 2688 1283 
C 2688 2081 2170 2662 1517 2662 
C 1126 2662 838 2407 678 1960 
L 678 2176 
z
M 1478 25 
C 691 25 691 1200 691 1436 
C 691 1896 909 2560 1504 2560 
C 1613 2560 1926 2560 2138 2120 
C 2253 1870 2253 1609 2253 1289 
C 2253 944 2253 690 2118 434 
C 1978 171 1773 25 1478 25 
z
" transform="scale(0.015625)"/>
       </defs>
       <use xlink:href="#CMR17-36" transform="scale(0.996264)"/>
      </g>
     </g>
    </g>
    <g id="text_8">
     <!-- $L/L_{0}$ -->
     <g style="fill: #23373b" transform="translate(213.134794 120.833221) scale(0.1 -0.1)">
      <defs>
       <path id="CMMI12-4c" d="M 2349 3861 
C 2406 4103 2426 4167 2989 4167 
C 3162 4167 3206 4167 3206 4288 
C 3206 4352 3136 4352 3110 4352 
C 2982 4352 2835 4352 2707 4352 
L 1850 4352 
C 1728 4352 1587 4352 1466 4352 
C 1414 4352 1344 4352 1344 4231 
C 1344 4167 1402 4167 1498 4167 
C 1888 4167 1888 4116 1888 4046 
C 1888 4034 1888 3995 1862 3899 
L 998 472 
C 941 249 928 185 480 185 
C 358 185 294 185 294 70 
C 294 0 333 0 461 0 
L 3328 0 
C 3469 0 3475 6 3520 121 
L 4013 1478 
C 4026 1510 4038 1548 4038 1567 
C 4038 1605 4006 1631 3974 1631 
C 3968 1631 3936 1631 3923 1605 
C 3910 1599 3910 1586 3859 1465 
C 3654 905 3366 185 2285 185 
L 1670 185 
C 1581 185 1568 185 1530 192 
C 1459 198 1453 211 1453 262 
C 1453 307 1466 345 1478 401 
L 2349 3861 
z
" transform="scale(0.015625)"/>
       <path id="CMMI12-3d" d="M 2746 4562 
C 2746 4569 2784 4666 2784 4678 
C 2784 4755 2720 4800 2669 4800 
C 2637 4800 2579 4800 2528 4659 
L 384 -1363 
C 384 -1370 346 -1465 346 -1478 
C 346 -1555 410 -1600 461 -1600 
C 499 -1600 557 -1593 602 -1459 
L 2746 4562 
z
" transform="scale(0.015625)"/>
      </defs>
      <use xlink:href="#CMMI12-4c" transform="scale(0.996264)"/>
      <use xlink:href="#CMMI12-3d" transform="translate(66.370875 0) scale(0.996264)"/>
      <use xlink:href="#CMMI12-4c" transform="translate(115.145794 0) scale(0.996264)"/>
      <use xlink:href="#CMR17-30" transform="translate(181.51667 -14.943915) scale(0.697382)"/>
     </g>
    </g>
   </g>
   <g id="matplotlib.axis_2">
    <g id="ytick_1">
     <g id="line2d_15">
      <defs>
       <path id="m6c9b8c0a20" d="M 0 0 
L 2.5 0 
" style="stroke: #23373b; stroke-width: 0.8"/>
      </defs>
      <g>
       <use xlink:href="#m6c9b8c0a20" x="33.192959" y="97.005564" style="fill: #23373b; stroke: #23373b; stroke-width: 0.8"/>
      </g>
     </g>
     <g id="line2d_16">
      <defs>
       <path id="m4108770503" d="M 0 0 
L -2.5 0 
" style="stroke: #23373b; stroke-width: 0.8"/>
      </defs>
      <g>
       <use xlink:href="#m4108770503" x="415.589496" y="97.005564" style="fill: #23373b; stroke: #23373b; stroke-width: 0.8"/>
      </g>
     </g>
     <g id="text_9">
      <!-- $\mathdefault{0.0}$ -->
      <g style="fill: #23373b" transform="translate(16.96288 100.464813) scale(0.1 -0.1)">
       <defs>
        <path id="CMMI12-3a" d="M 1178 307 
C 1178 492 1024 619 870 619 
C 685 619 557 466 557 313 
C 557 128 710 0 864 0 
C 1050 0 1178 153 1178 307 
z
" transform="scale(0.015625)"/>
       </defs>
       <use xlink:href="#CMR17-30" transform="scale(0.996264)"/>
       <use xlink:href="#CMMI12-3a" transform="translate(45.690477 0) scale(0.996264)"/>
       <use xlink:href="#CMR17-30" transform="translate(72.787654 0) scale(0.996264)"/>
      </g>
     </g>
    </g>
    <g id="ytick_2">
     <g id="line2d_17">
      <g>
       <use xlink:href="#m6c9b8c0a20" x="33.192959" y="52.241124" style="fill: #23373b; stroke: #23373b; stroke-width: 0.8"/>
      </g>
     </g>
     <g id="line2d_18">
      <g>
       <use xlink:href="#m4108770503" x="415.589496" y="52.241124" style="fill: #23373b; stroke: #23373b; stroke-width: 0.8"/>
      </g>
     </g>
     <g id="text_10">
      <!-- $\mathdefault{0.5}$ -->
      <g style="fill: #23373b" transform="translate(16.96288 55.700373) scale(0.1 -0.1)">
       <use xlink:href="#CMR17-30" transform="scale(0.996264)"/>
       <use xlink:href="#CMMI12-3a" transform="translate(45.690477 0) scale(0.996264)"/>
       <use xlink:href="#CMR17-35" transform="translate(72.787654 0) scale(0.996264)"/>
      </g>
     </g>
    </g>
    <g id="ytick_3">
     <g id="line2d_19">
      <g>
       <use xlink:href="#m6c9b8c0a20" x="33.192959" y="7.476684" style="fill: #23373b; stroke: #23373b; stroke-width: 0.8"/>
      </g>
     </g>
     <g id="line2d_20">
      <g>
       <use xlink:href="#m4108770503" x="415.589496" y="7.476684" style="fill: #23373b; stroke: #23373b; stroke-width: 0.8"/>
      </g>
     </g>
     <g id="text_11">
      <!-- $\mathdefault{1.0}$ -->
      <g style="fill: #23373b" transform="translate(16.96288 10.935933) scale(0.1 -0.1)">
       <use xlink:href="#CMR17-31" transform="scale(0.996264)"/>
       <use xlink:href="#CMMI12-3a" transform="translate(45.690477 0) scale(0.996264)"/>
       <use xlink:href="#CMR17-30" transform="translate(72.787654 0) scale(0.996264)"/>
      </g>
     </g>
    </g>
    <g id="text_12">
     <!-- $H/H_{0}$ -->
     <g style="fill: #23373b" transform="translate(10.47222 62.888609) rotate(-90) scale(0.1 -0.1)">
      <defs>
       <path id="CMMI12-48" d="M 4787 3887 
C 4845 4103 4858 4167 5312 4167 
C 5427 4167 5491 4167 5491 4282 
C 5491 4352 5434 4352 5395 4352 
C 5280 4352 5146 4352 5024 4352 
L 4269 4352 
C 4147 4352 4013 4352 3891 4352 
C 3846 4352 3770 4352 3770 4231 
C 3770 4167 3814 4167 3936 4167 
C 4320 4167 4320 4116 4320 4046 
C 4320 4034 4320 3995 4294 3900 
L 3904 2361 
L 1971 2361 
L 2355 3887 
C 2413 4103 2426 4167 2880 4167 
C 2995 4167 3059 4167 3059 4282 
C 3059 4352 3002 4352 2963 4352 
C 2848 4352 2714 4352 2592 4352 
L 1837 4352 
C 1715 4352 1581 4352 1459 4352 
C 1414 4352 1338 4352 1338 4231 
C 1338 4167 1382 4167 1504 4167 
C 1888 4167 1888 4116 1888 4046 
C 1888 4034 1888 3995 1862 3899 
L 998 472 
C 941 249 928 185 486 185 
C 339 185 294 185 294 64 
C 294 0 365 0 384 0 
C 499 0 634 0 755 0 
L 1510 0 
C 1632 0 1766 0 1888 0 
C 1939 0 2010 0 2010 121 
C 2010 185 1952 185 1856 185 
C 1466 185 1466 236 1466 300 
C 1466 307 1466 351 1478 402 
L 1920 2176 
L 3859 2176 
C 3750 1753 3424 416 3411 376 
C 3341 185 3238 185 2861 185 
C 2784 185 2726 185 2726 64 
C 2726 0 2797 0 2816 0 
C 2931 0 3066 0 3187 0 
L 3942 0 
C 4064 0 4198 0 4320 0 
C 4371 0 4442 0 4442 121 
C 4442 185 4384 185 4288 185 
C 3898 185 3898 236 3898 300 
C 3898 307 3898 351 3910 402 
L 4787 3887 
z
" transform="scale(0.015625)"/>
      </defs>
      <use xlink:href="#CMMI12-48" transform="scale(0.996264)"/>
      <use xlink:href="#CMMI12-3d" transform="translate(83.102337 0) scale(0.996264)"/>
      <use xlink:href="#CMMI12-48" transform="translate(131.877256 0) scale(0.996264)"/>
      <use xlink:href="#CMR17-30" transform="translate(212.702092 -14.943915) scale(0.697382)"/>
     </g>
    </g>
   </g>
   <g id="line2d_21">
    <path d="M 33.192959 97.005564 
L 195.410199 96.900677 
L 199.044784 96.653082 
L 201.531605 96.270054 
L 203.635838 95.714203 
L 205.357483 95.040225 
L 207.079128 94.121749 
L 208.800773 92.92578 
L 210.522419 91.440795 
L 212.435358 89.478342 
L 215.113473 86.354261 
L 218.365469 82.588248 
L 220.087114 80.951552 
L 221.426172 79.986321 
L 222.573935 79.424779 
L 223.721699 79.137092 
L 224.678168 79.116931 
L 225.634638 79.297468 
L 226.782402 79.770057 
L 227.930165 80.500113 
L 229.269222 81.63149 
L 230.990868 83.421121 
L 233.860276 86.814513 
L 236.729685 90.097748 
L 238.642624 91.96731 
L 240.36427 93.356476 
L 242.085915 94.457392 
L 243.80756 95.289975 
L 245.720499 95.94654 
L 247.824732 96.41423 
L 250.311553 96.728742 
L 253.754844 96.920223 
L 260.067543 96.998812 
L 301.195735 97.005564 
L 415.589496 97.005564 
L 415.589496 97.005564 
" clip-path="url(#p3825759672)" style="fill: none; stroke: #000000; stroke-width: 2; stroke-linecap: square"/>
   </g>
   <g id="line2d_22">
    <path d="M 33.192959 7.476684 
L 96.702539 7.476684 
L 96.893833 8.595795 
L 97.085127 95.886453 
L 97.085127 95.886453 
" clip-path="url(#p3825759672)" style="fill: none; stroke: #1764ab; stroke-width: 1.5; stroke-linecap: square"/>
   </g>
   <g id="line2d_23">
    <path d="M 33.192959 7.476686 
L 38.740483 7.572212 
L 39.696952 7.794013 
L 40.653422 8.259925 
L 41.801185 9.133408 
L 43.714124 10.94735 
L 57.67858 24.674013 
L 64.756455 31.202987 
L 71.643036 37.257598 
L 78.529617 43.019401 
L 85.224904 48.342506 
L 92.111485 53.53649 
L 99.380654 58.736214 
L 105.884647 63.087779 
L 112.38864 67.168646 
L 118.892633 70.979237 
L 125.014039 74.318808 
L 131.518032 77.605895 
L 138.022025 80.627292 
L 144.526018 83.383625 
L 151.030011 85.871269 
L 156.960122 87.907271 
L 163.272822 89.819052 
L 168.820345 91.26312 
L 172.646223 92.015754 
L 175.89822 92.730965 
L 178.002453 93.461953 
L 179.532804 94.202926 
L 180.29798 94.758152 
L 180.680568 95.223178 
L 181.063156 96.13202 
L 181.25445 96.638656 
L 181.25445 96.638656 
" clip-path="url(#p3825759672)" style="fill: none; stroke: #3b8bc2; stroke-width: 1.5; stroke-linecap: square"/>
   </g>
   <g id="line2d_24">
    <path d="M 33.192959 48.83117 
L 48.305178 48.940116 
L 62.843516 49.265394 
L 74.129857 49.719156 
L 77.955735 50.044767 
L 79.868674 50.406896 
L 81.781614 51.015217 
L 86.372668 52.851342 
L 98.424184 57.57561 
L 109.519231 61.67477 
L 120.805572 65.604122 
L 132.091913 69.29138 
L 143.378254 72.73662 
L 154.473301 75.889055 
L 165.568349 78.807786 
L 177.045984 81.583518 
L 188.141031 84.021506 
L 194.836318 85.295844 
L 198.470902 85.772574 
L 200.957723 85.881909 
L 202.870662 85.76833 
L 204.783601 85.424972 
L 205.931365 85.018065 
L 206.313953 84.890389 
L 206.69654 84.861495 
L 207.461716 84.349459 
L 208.60948 83.735925 
L 208.992067 83.70136 
L 209.757243 82.762662 
L 210.331125 82.489449 
L 210.713713 82.445473 
L 211.478888 81.275201 
L 212.05277 80.880953 
L 212.435358 80.891838 
L 212.626652 80.695224 
L 213.00924 79.753322 
L 213.583121 79.144283 
L 213.965709 78.95929 
L 214.348297 78.939635 
L 215.113473 77.540049 
L 215.496061 77.293032 
L 216.069942 77.121248 
L 216.643824 75.717253 
L 217.409 74.971493 
L 217.791588 74.817119 
L 217.982881 74.867157 
L 218.174175 74.77816 
L 218.939351 73.279038 
L 219.513233 72.953825 
L 219.895821 72.977213 
L 220.087114 72.786491 
L 220.469702 72.191424 
L 220.85229 72.047801 
L 221.234878 72.073653 
L 221.80876 71.712844 
L 223.147817 71.568608 
L 223.912993 71.563396 
L 224.678168 71.683524 
L 225.443344 72.096747 
L 226.399814 72.612723 
L 229.077929 74.927774 
L 230.416986 76.659336 
L 231.564749 78.32005 
L 233.860276 81.826169 
L 235.390628 84.357185 
L 240.555563 91.764343 
L 241.320739 92.952418 
L 241.703327 93.952598 
L 241.703327 93.952598 
" clip-path="url(#p3825759672)" style="fill: none; stroke: #6aaed6; stroke-width: 1.5; stroke-linecap: square"/>
   </g>
   <g id="line2d_25">
    <path d="M 33.192959 69.339384 
L 69.538803 69.449446 
L 99.380654 69.758732 
L 129.413799 70.284666 
L 155.812359 70.963733 
L 162.890234 71.301844 
L 166.14223 71.727427 
L 170.733284 72.546054 
L 186.801973 75.396914 
L 194.645024 76.623591 
L 198.088314 76.965312 
L 200.575135 77.000307 
L 202.488074 76.823757 
L 204.20972 76.44781 
L 205.740071 75.891658 
L 207.461716 75.011112 
L 209.183361 73.764045 
L 212.05277 70.914366 
L 216.835118 64.834599 
L 218.556763 62.81636 
L 219.704527 61.709361 
L 220.85229 60.87431 
L 221.80876 60.420693 
L 222.573935 60.218759 
L 223.339111 60.230727 
L 224.295581 60.454202 
L 225.443344 61.019781 
L 226.399814 61.733208 
L 227.356283 62.697241 
L 228.886635 64.592652 
L 230.990868 67.696055 
L 235.964509 75.411313 
L 237.686155 77.707212 
L 239.216506 79.467068 
L 241.129445 81.305735 
L 242.659797 82.49907 
L 244.572736 83.602689 
L 246.294381 84.345051 
L 247.824732 84.840727 
L 250.694141 85.507074 
L 255.859077 86.326884 
L 258.154604 86.531792 
L 263.128245 87.015157 
L 270.588708 87.690573 
L 276.327526 88.037525 
L 286.083515 88.924831 
L 289.909394 89.209296 
L 297.752444 90.189741 
L 308.082316 91.77098 
L 310.951724 92.658479 
L 314.968897 94.135048 
L 316.11666 94.763473 
L 316.690542 95.233837 
L 317.07313 95.796021 
L 317.455717 96.704004 
L 317.455717 96.704004 
" clip-path="url(#p3825759672)" style="fill: none; stroke: #a6cee4; stroke-width: 1.5; stroke-linecap: square"/>
   </g>
   <g id="line2d_26">
    <path d="M 33.192959 77.722451 
L 110.093113 77.833422 
L 162.507646 78.143721 
L 195.410199 78.300117 
L 198.470902 78.061594 
L 200.766429 77.665204 
L 202.679368 77.099357 
L 204.20972 76.431297 
L 205.740071 75.519376 
L 207.270422 74.314061 
L 208.800773 72.770872 
L 210.331125 70.857981 
L 211.861476 68.560912 
L 213.583121 65.538193 
L 215.878648 60.963927 
L 217.982881 56.840489 
L 219.130645 55.083042 
L 220.087114 54.092086 
L 220.85229 53.644622 
L 221.617466 53.467454 
L 222.382641 53.546327 
L 223.339111 53.929537 
L 224.295581 54.586673 
L 225.443344 55.67852 
L 226.782402 57.283845 
L 228.504047 59.749461 
L 230.990868 63.779807 
L 235.00804 70.299135 
L 236.920979 72.968793 
L 238.642624 74.999669 
L 240.172976 76.491966 
L 241.703327 77.690238 
L 243.042384 78.512714 
L 244.572736 79.235088 
L 246.294381 79.814744 
L 248.781202 80.332661 
L 252.224492 80.749483 
L 255.476489 80.99084 
L 305.978083 85.000041 
L 310.76043 85.295605 
L 320.325126 86.00476 
L 323.768417 86.185365 
L 329.31594 86.482469 
L 334.289582 86.811389 
L 350.166977 87.944935 
L 362.983669 89.099798 
L 374.843892 90.855306 
L 380.965297 92.19362 
L 384.026 93.155892 
L 386.512821 94.146198 
L 387.851878 94.875049 
L 388.42576 95.387318 
L 388.808348 96.05762 
L 388.999642 96.552057 
L 388.999642 96.552057 
" clip-path="url(#p3825759672)" style="fill: none; stroke: #d0e1f2; stroke-width: 1.5; stroke-linecap: square"/>
   </g>
   <g id="patch_3">
    <path d="M 33.192959 97.005564 
L 33.192959 3.00024 
" style="fill: none; stroke: #23373b; stroke-width: 0.8; stroke-linejoin: miter; stroke-linecap: square"/>
   </g>
   <g id="patch_4">
    <path d="M 415.589496 97.005564 
L 415.589496 3.00024 
" style="fill: none; stroke: #23373b; stroke-width: 0.8; stroke-linejoin: miter; stroke-linecap: square"/>
   </g>
   <g id="patch_5">
    <path d="M 33.192959 97.005564 
L 415.589496 97.005564 
" style="fill: none; stroke: #23373b; stroke-width: 0.8; stroke-linejoin: miter; stroke-linecap: square"/>
   </g>
   <g id="patch_6">
    <path d="M 33.192959 3.00024 
L 415.589496 3.00024 
" style="fill: none; stroke: #23373b; stroke-width: 0.8; stroke-linejoin: miter; stroke-linecap: square"/>
   </g>
  </g>
 </g>
 <defs>
  <clipPath id="p3825759672">
   <rect x="33.192959" y="3.00024" width="382.396537" height="94.005324"/>
  </clipPath>
 </defs>
</svg>
